<svg xmlns="http://www.w3.org/2000/svg" version="1.1" xmlns:xlink="http://www.w3.org/1999/xlink" xmlns:svgjs="http://svgjs.dev/svgjs" width="100%" height="100%" viewBox="0 0 1000 600"><rect width="1000" height="600" x="0" y="0" fill="#aa96da"/><g><circle r="166.66666666666666" cx="386.72858683268225" cy="408.95077625702004" fill="#c5fad5" transform="matrix(0.5680217972844313,0,0,0.5680217972844313,0,67.70700322029738)"/><path d="M345.55613761215534 483.9507048044509L339.4402580387049 483.9507048044509L301.72079023881173 371.87501692734395Q298.1507552724913 360.69671072132445 296.0438493907285 354.2589427492713Q293.9369435089656 347.85043735890935 292.88349056808426 343.19768687001635L292.88349056808426 343.19768687001635Q289.927969817278 343.43178752354555 286.9724490664718 343.43178752354555Q284.01692831566555 343.43178752354555 281.0614075648594 343.63662559538363L281.0614075648594 343.63662559538363L281.0614075648594 334.3603871992889L332.27092552437296 334.3603871992889L332.27092552437296 341.3248816417827Q320.039166377472 341.93939585729686 317.6396346787977 346.7969844180279Q315.21084039843214 351.6253103970677 318.57603729291446 364.2667456876448L318.57603729291446 364.2667456876448Q322.1460722592348 378.1957345726325 326.3598840227605 389.3447781969609Q330.57369578628624 400.52308440298043 334.58266947797387 413.3693577653956L334.58266947797387 413.3693577653956Q337.5381902287801 422.8504342333284 340.58149872465975 430.86838161670363Q343.6540698022306 438.8570664183878 346.81442862487484 448.77708161168783L346.81442862487484 448.77708161168783L347.22410476855094 448.77708161168783Q348.27755770943236 445.1777840636763 349.4480609770784 441.1688103719887Q350.58930166303327 437.18909926199217 351.8768552574439 433.3849636421426Q353.1351462701634 429.580828022293 354.1885992110448 426.3326814545753Q355.2420521519262 423.05527230516645 355.8565663674404 420.94836642340357L355.8565663674404 420.94836642340357Q361.7676078690528 402.19105155937604 367.5615990439006 384.6042399629945Q373.35559021874843 367.017428366613 377.7742400541122 353.6444285337571Q382.19288988947596 340.27142870090125 383.8901196275627 333.95071105561277L383.8901196275627 333.95071105561277L390.62051341652733 333.95071105561277Q392.52258122645213 340.88594291641544 396.12187877446365 351.6253103970677Q399.69191374078406 362.39394045941117 403.70088743247163 374.18676088094486Q407.7098611241593 385.9795813024786 411.1628457637151 396.5141107112928Q414.645092984962 407.04864012010705 416.7519988667248 413.3693577653956L416.7519988667248 413.3693577653956Q419.7075196175311 422.8504342333284 422.98492876693996 432.1266726294231Q426.23307533465766 441.4029110255179 428.9837580136258 451.29366363712677L428.9837580136258 451.29366363712677L429.59827222914 451.29366363712677Q431.5003400390647 445.1777840636763 433.72429624759224 438.24255220287364Q435.9189898744285 431.27805776037974 438.25999640972054 424.10872524604787L438.25999640972054 424.10872524604787Q443.73209918596575 408.5117692046646 447.21434640721264 397.9772397958503Q450.6673310467684 387.44271038703613 452.8912872552959 380.5074785262334Q455.11524346382333 373.54298408373955 456.6954228751454 368.39276970609706Q458.27560228646763 363.2132927467634 459.9435694428632 358.38496676772354L459.9435694428632 358.38496676772354Q461.2018604555827 354.785669219712 462.78203986690477 350.68890778295093Q464.3622192782269 346.59214634618985 466.4691251599898 342.9928487981783L466.4691251599898 342.9928487981783Q462.25531339646403 343.19768687001635 458.0415016329384 343.314737196781Q453.8276898694127 343.43178752354555 449.613878105887 343.63662559538363L449.613878105887 343.63662559538363L449.613878105887 334.3603871992889L492.3957725383492 334.3603871992889L492.3957725383492 341.3248816417827Q485.2264400240173 342.14423392913494 481.12967858725625 344.485240464427Q477.003654568804 346.7969844180279 473.84329574615975 353.1177020633164Q470.68293692351546 359.43841970860495 466.2642870881517 372.48953114285814L466.2642870881517 372.48953114285814Q456.57837254838086 401.1375986184946 447.41918447905067 428.84926348001426Q438.25999640972054 456.5609283415339 428.3399812164205 483.9507048044509L428.3399812164205 483.9507048044509L422.01926357113194 483.9507048044509L390.00599920101314 392.5051370196052Q388.10393139108834 387.03303424336 386.31891390792816 381.7657695389529Q384.533896424768 376.49850483454577 382.6318286148432 371.23124013013864L382.6318286148432 371.23124013013864Q380.93459887675647 376.49850483454577 379.1495813935963 381.7657695389529Q377.36456391043606 387.03303424336 375.66733417234934 392.30029894776715L375.66733417234934 392.30029894776715L345.55613761215534 483.9507048044509Z " fill="#aa96da" transform="matrix(0.5680217972844313,0,0,0.5680217972844313,0,67.70700322029738)"/><path d="M695.9016679433938 482.796246242004L690.2904278397913 482.796246242004L655.683305861114 379.9682577405811Q652.4078451307815 369.71230692921205 650.4747863391099 363.8057383991042Q648.5417275474382 357.92601790776956 647.5751981516024 353.657179742828L647.5751981516024 353.657179742828Q644.8635462355074 353.87196405301376 642.1518943194125 353.87196405301376Q639.4402424033175 353.87196405301376 636.7285904872225 354.0599003244263L636.7285904872225 354.0599003244263L636.7285904872225 345.54907203331635L683.7126583403531 345.54907203331635L683.7126583403531 351.9389052613421Q672.4901781331481 352.50271407557966 670.2886389537443 356.9594885119338Q668.0602517355672 361.38941490951464 671.1477761944873 372.9877676595446L671.1477761944873 372.9877676595446Q674.4232369248199 385.7674341155961 678.2893545081631 395.99653688819194Q682.1554720915065 406.252487699561 685.8336534034372 418.0387767210035L685.8336534034372 418.0387767210035Q688.5453053195322 426.73754128352596 691.3375013519468 434.09390390738747Q694.1565454231346 441.4234184924759 697.0561336106422 450.5249036365966L697.0561336106422 450.5249036365966L697.4320061534671 450.5249036365966Q698.398535549303 447.22259486749084 699.4724571002317 443.54441355556Q700.5195306123873 439.8930802824025 701.7008443184087 436.4028352418842Q702.8553099856571 432.91259020136596 703.8218393814929 429.9324578975388Q704.7883687773287 426.9254775549384 705.3521775915664 424.99241876326676L705.3521775915664 424.99241876326676Q710.7754814237562 407.7828259096344 716.0913931008532 391.6471546069307Q721.4073047779503 375.511483304227 725.4613586327062 363.2419295848666Q729.5154124874621 350.97237586550625 731.0725987363086 345.1731994904913L731.0725987363086 345.1731994904913L737.2476476541486 345.1731994904913Q738.9927701744078 351.5361846797438 742.2950789435135 361.38941490951464Q745.570539673846 371.26949317805867 749.2487209857768 382.0892528036653Q752.9269022977077 392.9090124292719 756.0949708729473 402.5743063876302Q759.2898874869602 412.2396003459885 761.2229462786319 418.0387767210035L761.2229462786319 418.0387767210035Q763.9345981947268 426.73754128352596 766.9415785373271 435.2483695746359Q769.9217108411543 443.7591978657458 772.4454264858367 452.83383497109327L772.4454264858367 452.83383497109327L773.0092353000744 452.83383497109327Q774.7543578203334 447.22259486749084 776.794808767098 440.8596096782383Q778.8084116750892 434.4697764502125 780.9562547769467 427.89200695077426L780.9562547769467 427.89200695077426Q785.9768380275384 413.5820022846494 789.1717546415512 403.9167083262911Q792.3398232167908 394.2514143679328 794.3802741635554 387.88842917868027Q796.42072511032 381.49859595065453 797.8705192040737 376.77334112656825Q799.3203132978274 372.02123826370877 800.8506515079008 367.59131186612785L800.8506515079008 367.59131186612785Q802.0051171751492 364.2890030970221 803.454911268903 360.5302776687717Q804.9047053626566 356.7715522405212 806.8377641543283 353.4692434714155L806.8377641543283 353.4692434714155Q802.9716465709851 353.657179742828 799.1055289876417 353.76457189792086Q795.2394114042984 353.87196405301376 791.373293820955 354.0599003244263L791.373293820955 354.0599003244263L791.373293820955 345.54907203331635L830.6251265073989 345.54907203331635L830.6251265073989 351.9389052613421Q824.0473570079607 352.6906503469922 820.2886315797102 354.8384934488496Q816.5030581126866 356.9594885119338 813.6034699251791 362.75866488694874Q810.7038817376716 368.5578412619637 806.6498278829158 380.5320665548187L806.6498278829158 380.5320665548187Q797.7631270489808 406.8162965137986 789.3596909129637 432.2413892320355Q780.9562547769467 457.66648195027244 771.854769632826 482.796246242004L771.854769632826 482.796246242004L766.055593257811 482.796246242004L736.6838388399111 398.89612507569944Q734.9387163196519 393.87554182510775 733.3009859544857 389.04289484592863Q731.6632555893194 384.21024786674946 729.9181330690602 379.37760088757034L729.9181330690602 379.37760088757034Q728.3609468202137 384.21024786674946 726.7232164550475 389.04289484592863Q725.0854860898811 393.87554182510775 723.5282998410345 398.7081888042869L723.5282998410345 398.7081888042869L695.9016679433938 482.796246242004ZM902.5241743420753 480.8631874503323L902.5241743420753 475.06401107531735Q908.538135027276 475.06401107531735 910.8470663617727 472.05703073271695Q913.1559976962694 469.0768984288899 913.5587182778677 463.76098675179276Q913.9345908206927 458.44507507469575 913.9345908206927 451.4914330324324L913.9345908206927 451.4914330324324L913.9345908206927 424.42860994902924Q913.9345908206927 407.7828259096344 908.6186791435957 399.48678192871023Q903.3027674664986 391.1638899090128 891.8923509878812 391.3518261804253L891.8923509878812 391.3518261804253Q884.7507726742053 391.5666104906111 877.8776747482617 394.8420712209436Q871.0314248610912 398.11753195127613 866.7625866961497 403.3528995120535L866.7625866961497 403.3528995120535L866.7625866961497 460.3781338663674Q866.7625866961497 464.2442514497107 866.5746504247372 467.22438375353784Q866.3867141533246 470.23136409613824 865.7960573003138 473.50682482647073L865.7960573003138 473.50682482647073Q868.910429798007 473.3188885550582 871.8905621018342 473.2383444387385Q874.8975424444345 473.1309522836457 877.9850669033546 472.94301601223316L877.9850669033546 472.94301601223316L877.9850669033546 480.8631874503323L838.5452979454981 480.8631874503323L838.5452979454981 475.06401107531735Q844.5324105919257 475.06401107531735 846.8681899651955 472.05703073271695Q849.1771212996922 469.0768984288899 849.6603859976101 463.76098675179276Q850.1436506955281 458.44507507469575 850.1436506955281 451.4914330324324L850.1436506955281 451.4914330324324L850.1436506955281 360.04701297085376Q850.1436506955281 356.9594885119338 850.2510428506209 354.1404444407459Q850.3315869669407 351.3482484083313 850.7343075485388 347.482130824988L850.7343075485388 347.482130824988Q847.2440625080205 347.6700670964005 843.8612096225952 347.85800336781307Q840.4783567371697 348.07278767799875 837.0149597354248 348.26072394941133L837.0149597354248 348.26072394941133L837.0149597354248 340.1257682011264Q845.4989399877614 340.1257682011264 850.2510428506209 339.3740231154763Q854.9762976747072 338.595429991053 857.3926211642968 337.4409643238047Q859.8089446538863 336.2596506177831 861.1781946313204 334.9172486791222L861.1781946313204 334.9172486791222L866.7625866961497 334.9172486791222L866.7625866961497 393.87554182510775Q871.0314248610912 390.19736051317693 876.3473365381883 387.4051644807623Q881.6632482152854 384.5861204095745 887.3550324352075 382.8678459280886Q893.0736646939029 381.1227234078295 898.4701204873195 381.1227234078295L898.4701204873195 381.1227234078295Q915.3038407981269 381.1227234078295 922.740747538308 391.6471546069307Q930.1776542784893 402.19843384480515 930.3655905499018 424.42860994902924L930.3655905499018 424.42860994902924L930.5535268213143 460.3781338663674Q930.5535268213143 464.2442514497107 930.4729827049947 467.22438375353784Q930.3655905499018 470.23136409613824 929.8017817356642 473.50682482647073L929.8017817356642 473.50682482647073Q932.8893061945843 473.3188885550582 935.8694384984115 473.2383444387385Q938.8764188410117 473.1309522836457 941.9639432999318 472.94301601223316L941.9639432999318 472.94301601223316L941.9639432999318 480.8631874503323L902.5241743420753 480.8631874503323ZM1004.224545215023 483.9507119092523L1004.224545215023 483.9507119092523Q990.6931336733214 483.9507119092523 979.658589737529 477.66827083631944Q968.65089384051 471.38582976338654 962.1805164961645 460.2707417112745Q955.6832911130459 449.1556536591625 955.6832911130459 434.84564899303757L955.6832911130459 434.84564899303757Q955.6832911130459 419.59596296985006 962.0731243410717 407.4069533668094Q968.4629575690974 395.21794376376863 979.4706534661166 388.18375760518563Q990.4783493631357 381.1227234078295 1004.224545215023 381.1227234078295L1004.224545215023 381.1227234078295Q1017.7559567567246 381.1227234078295 1028.763652653744 387.59310075217485Q1039.771348550763 394.06347809652027 1046.3491180502015 405.09802203231266Q1052.9268875496396 416.10571792933183 1052.9268875496396 430.2277863240442L1052.9268875496396 430.2277863240442Q1052.9268875496396 445.10159980440665 1046.4565102052943 457.371153523767Q1039.9861328609486 469.6407072431274 1028.9515889251566 476.80913359557644Q1017.9438930281372 483.9507119092523 1004.224545215023 483.9507119092523ZM1005.7548834250964 476.2184767425657L1005.7548834250964 476.2184767425657Q1016.0108342364655 476.2184767425657 1021.9979468828931 470.4193003675507Q1027.9850595293206 464.62012399253575 1030.5893192903227 455.3575506157757Q1033.220427090098 446.0681292002425 1033.220427090098 435.8121783888734L1033.220427090098 435.8121783888734Q1033.220427090098 427.113413826351 1031.5558486861587 418.7099776903339Q1029.918118320992 410.3065415543168 1026.4547213192473 403.4334436283732Q1022.9644762787289 396.5871937412027 1017.4606283302193 392.53313988644686Q1011.9567803817097 388.45223799291784 1004.224545215023 388.45223799291784L1004.224545215023 388.45223799291784Q994.1565306750665 388.45223799291784 987.7935454858139 394.2514143679328Q981.4037122577881 400.05059074294775 978.3967319151878 409.34001215848104Q975.4165996113607 418.62943357401423 975.4165996113607 429.26125692820835L975.4165996113607 429.26125692820835Q975.4165996113607 441.23548222106336 978.6920603416933 451.97469773035033Q981.994369110799 462.68706520086414 988.7600748816499 469.4527709717149Q995.5257806525005 476.2184767425657 1005.7548834250964 476.2184767425657ZM1069.3578872788485 480.8631874503323L1069.3578872788485 475.06401107531735Q1075.3449999252762 475.06401107531735 1077.680779298546 472.05703073271695Q1079.9897106330427 469.0768984288899 1080.3655831758679 463.76098675179276Q1080.7683037574661 458.44507507469575 1080.7683037574661 451.4914330324324L1080.7683037574661 451.4914330324324L1080.7683037574661 407.4069533668094Q1080.7683037574661 404.31942890788935 1080.9562400288787 401.5003848367015Q1081.1441763002913 398.7081888042869 1081.5468968818896 394.8420712209436L1081.5468968818896 394.8420712209436Q1078.0566518413711 395.0300074923561 1074.6737989559456 395.21794376376863Q1071.2909460705205 395.43272807395437 1067.800701030002 395.6206643453669L1067.800701030002 395.6206643453669L1067.800701030002 387.485708597082Q1076.3115293211122 387.485708597082 1080.9562400288787 386.7339635114319Q1085.6009507366452 385.9553703870086 1088.0172742262348 384.80090471976024Q1090.4335977158244 383.61959101373867 1091.775999654485 382.27718907507784L1091.775999654485 382.27718907507784L1097.3872397580876 382.27718907507784L1097.3872397580876 460.3781338663674Q1097.3872397580876 464.2442514497107 1097.2798476029948 467.22438375353784Q1097.199303486675 470.23136409613824 1096.6086466336642 473.50682482647073L1096.6086466336642 473.50682482647073Q1099.6961710925843 473.3188885550582 1102.7031514351847 473.2383444387385Q1105.7101317777851 473.1309522836457 1108.7976562367053 472.94301601223316L1108.7976562367053 472.94301601223316L1108.7976562367053 480.8631874503323L1069.3578872788485 480.8631874503323ZM1088.0978183425545 363.1345374297738L1088.0978183425545 363.1345374297738Q1084.0437644877989 363.1345374297738 1080.9562400288787 359.85907669944123Q1077.8687155699586 356.5567679303355 1077.8687155699586 351.72412095115635L1077.8687155699586 351.72412095115635Q1077.8687155699586 346.89147397197723 1081.0636321839715 343.50862108655184Q1084.231700759211 340.1257682011264 1088.3126026527402 340.1257682011264L1088.3126026527402 340.1257682011264Q1092.742529050321 340.1257682011264 1095.7495093929215 343.50862108655184Q1098.7296416967488 346.89147397197723 1098.7296416967488 351.72412095115635L1098.7296416967488 351.72412095115635Q1098.7296416967488 356.5567679303355 1095.561573121509 359.85907669944123Q1092.366656507496 363.1345374297738 1088.0978183425545 363.1345374297738ZM1163.2991749463363 483.9507119092523L1163.2991749463363 483.9507119092523Q1153.633880987978 483.9507119092523 1146.089582092704 481.34645214825025Q1138.5721312362034 478.7421923872481 1133.7394842570243 475.4398836181424L1133.7394842570243 475.4398836181424L1134.4912293426742 482.2055893889932L1126.3831216331628 482.2055893889932L1125.2286559659142 448.96771738775L1131.215768612342 448.96771738775Q1131.5916411551666 456.88788882584913 1135.6725430486958 463.17032989878203Q1139.7265969034515 469.4527709717149 1146.089582092704 472.94301601223316Q1152.47941532073 476.40641301397824 1159.8357779445914 476.40641301397824L1159.8357779445914 476.40641301397824Q1164.8563611951831 476.40641301397824 1169.6890081743622 474.76868264881193Q1174.5216551535414 473.1309522836457 1177.797115883874 469.7480993982203Q1181.0994246529795 466.3652465127949 1181.0994246529795 461.1567269907907L1181.0994246529795 461.1567269907907Q1181.0994246529795 455.7334231586008 1177.904508038967 452.16263400176285Q1174.709591424954 448.59184484492494 1169.5010719029497 445.88019292882996Q1164.2657043421723 443.168541012735 1158.278591695745 440.8596096782383L1158.278591695745 440.8596096782383Q1152.47941532073 438.5238303049684 1146.6802389457148 436.02696269905914Q1140.8810625707001 433.50324705437674 1135.9410234364277 430.01300201385845Q1131.0278323409293 426.5496050121134 1128.1282441534217 421.52902176152173Q1125.2286559659142 416.4815904721569 1125.2286559659142 409.15207588706846L1125.2286559659142 409.15207588706846Q1125.2286559659142 405.09802203231266 1126.7589941759875 400.26537505313354Q1128.3161804248343 395.43272807395437 1131.9943617367649 391.08334579269314Q1135.6725430486958 386.7339635114319 1142.0355282379483 383.9149194402441Q1148.4253614659742 381.1227234078295 1158.278591695745 381.1227234078295L1158.278591695745 381.1227234078295Q1163.4871112177489 381.1227234078295 1169.8769444457748 382.8678459280886Q1176.2667776738003 384.5861204095745 1182.253890320228 389.4187673887537L1182.253890320228 389.4187673887537L1181.8511697386298 382.0892528036653L1189.9861254869147 382.0892528036653L1189.9861254869147 415.9177816579193L1183.7842285303013 415.9177816579193Q1183.4083559874762 409.15207588706846 1180.6967040713816 402.8696348141356Q1177.9850521552867 396.5871937412027 1172.7765326332824 392.425747731354Q1167.568013111278 388.2643017215053 1159.2451210915806 388.2643017215053L1159.2451210915806 388.2643017215053Q1150.3584202576458 388.2643017215053 1145.337837007054 392.72107615785944Q1140.2904057176893 397.1510025554403 1140.2904057176893 402.95017893045525L1140.2904057176893 402.95017893045525Q1140.2904057176893 408.964139615656 1144.075979184713 412.91080131531896Q1147.8347046129634 416.88431105375514 1153.8218172593906 419.7838992412626Q1159.8357779445914 422.6834874287701 1166.6014837154426 425.3951393448651L1166.6014837154426 425.3951393448651Q1173.9309983005305 428.48266380378504 1180.8846403427938 432.16084511571586Q1187.8651304238306 435.8121783888734 1192.2950568214114 441.3428743761562Q1196.7518312577654 446.8467223246658 1196.7518312577654 455.54548688718825L1196.7518312577654 455.54548688718825Q1196.7518312577654 465.21078084554654 1191.8117921234934 471.57376603479906Q1186.8986010279946 477.9635992628248 1179.2469099776276 480.9705796054252Q1171.6220669660338 483.9507119092523 1163.2991749463363 483.9507119092523ZM1225.3449925512423 384.21024786674946L1225.3449925512423 380.15619401199365Q1225.3449925512423 358.7046110321929 1233.1846198730213 346.32766515773966Q1241.0242471948009 333.9507192832864 1260.140050801332 333.9507192832864L1260.140050801332 333.9507192832864Q1264.4088889662735 333.9507192832864 1269.1341437903598 335.4005133770401Q1273.8862466532191 336.8503074707939 1277.3496436549644 340.04522408480676Q1280.8398886954824 343.24014069881963 1280.8398886954824 348.26072394941133L1280.8398886954824 348.26072394941133Q1280.8398886954824 351.9389052613421 1278.799437748718 354.43577286725133Q1276.7858348407267 356.9594885119338 1272.9197172573836 356.9594885119338L1272.9197172573836 356.9594885119338Q1268.2750065496166 357.14742478334625 1266.4224918742648 354.1404444407459Q1264.596825237686 351.1603121369188 1264.596825237686 349.03931707383464L1264.596825237686 349.03931707383464Q1264.596825237686 347.85800336781307 1264.7847615090986 346.7035377005647Q1264.9726977805108 345.54907203331635 1265.5633546335216 344.20667009465546L1265.5633546335216 344.20667009465546Q1264.220952694861 342.4615475743963 1261.8046292052713 341.682954449973Q1259.3883057156818 340.9043613255497 1257.2404626138245 340.9043613255497L1257.2404626138245 340.9043613255497Q1251.2533499673968 340.9043613255497 1247.9778892370646 344.394606366068Q1244.6755804679588 347.85800336781307 1243.3331785292976 353.09337092859045Q1241.9907765906369 358.3018904505946 1241.9907765906369 363.91313055419704L1241.9907765906369 363.91313055419704L1241.9907765906369 384.21024786674946L1268.0870702782045 384.21024786674946L1268.0870702782045 391.7545467620236L1241.9907765906369 392.3183555762612L1242.1787128620495 460.3781338663674Q1242.1787128620495 464.2442514497107 1242.0713207069566 467.22438375353784Q1241.9907765906369 470.23136409613824 1241.400119737626 473.50682482647073L1241.400119737626 473.50682482647073Q1244.4876441965462 473.3188885550582 1247.4946245391466 473.2383444387385Q1250.4747568429734 473.1309522836457 1253.5891293406667 472.94301601223316L1253.5891293406667 472.94301601223316L1253.5891293406667 480.8631874503323L1214.1493603828103 480.8631874503323L1214.1493603828103 475.06401107531735Q1220.136473029238 475.06401107531735 1222.4454043637347 472.05703073271695Q1224.7811837370045 469.0768984288899 1225.1570562798297 463.76098675179276Q1225.559776861428 458.44507507469575 1225.559776861428 451.4914330324324L1225.559776861428 451.4914330324324L1225.3449925512423 392.53313988644686L1209.5046496750438 392.9090124292719L1209.5046496750438 384.21024786674946L1225.3449925512423 384.21024786674946ZM1324.333711508095 483.9507119092523L1324.333711508095 483.9507119092523Q1310.9902362378057 483.9507119092523 1300.2510207285186 477.66827083631944Q1289.538653258005 471.38582976338654 1283.3367563013917 459.8948691684495Q1277.1617073835519 448.3770605347392 1277.1617073835519 432.72465392995343L1277.1617073835519 432.72465392995343Q1277.1617073835519 419.1932423882518 1283.256212185072 407.4069533668094Q1289.3507169865925 395.6206643453669 1300.358412883612 388.37169387659816Q1311.3661087806308 381.1227234078295 1325.8640497181682 381.1227234078295L1325.8640497181682 381.1227234078295Q1333.9990054664531 381.1227234078295 1341.0600396638092 383.72698316883157Q1348.0942258223922 386.33124292983365 1353.5175296545822 391.6471546069307Q1358.9408334867721 396.9630662840278 1362.0283579456923 404.99062987721976Q1365.115882404612 413.0181934704118 1365.115882404612 423.83795309601845L1365.115882404612 423.83795309601845L1297.0829521532792 424.99241876326676Q1297.0829521532792 439.6782959722167 1300.2510207285186 450.79338402432876Q1303.4459373425316 461.9084720764408 1310.6143636949805 468.00297687796115Q1317.7559420086568 474.09748167948146 1328.9784222158614 474.09748167948146L1328.9784222158614 474.09748167948146Q1334.9655348622887 474.09748167948146 1341.2479759352218 471.9764866163973Q1347.5304170081545 469.8554915533132 1352.9268728015713 466.1773102413824Q1358.3501766337613 462.49912892945156 1361.625637364094 458.0423544930975L1361.625637364094 458.0423544930975L1366.2703480718606 461.9084720764408Q1361.0618285498563 470.04342782472565 1353.7054659259948 474.8760748039048Q1346.3759513409063 479.70872178308394 1338.6437161742197 481.82971684616814Q1330.911481007533 483.9507119092523 1324.333711508095 483.9507119092523ZM1297.6467609675165 416.88431105375514L1297.6467609675165 416.88431105375514L1346.9397601551436 416.88431105375514Q1346.9397601551436 409.9306690114918 1344.9261572471528 403.4334436283732Q1342.885706300388 396.9630662840278 1338.2409955926214 392.8016202741791Q1333.5962848848549 388.6670223031036 1326.0788340283539 388.6670223031036L1326.0788340283539 388.6670223031036Q1314.8563538211492 388.6670223031036 1307.419447080968 395.3253359188615Q1299.9825403407867 401.9836495346194 1297.6467609675165 416.88431105375514ZM1421.765244216101 480.8631874503323L1382.3254752582443 480.8631874503323L1382.3254752582443 475.06401107531735Q1388.312587904672 475.06401107531735 1390.6215192391687 472.05703073271695Q1392.9572986124385 469.0768984288899 1393.3331711552637 463.76098675179276Q1393.735891736862 458.44507507469575 1393.735891736862 451.4914330324324L1393.735891736862 451.4914330324324L1393.735891736862 407.4069533668094Q1393.735891736862 404.31942890788935 1393.8164358531817 401.2319044489693Q1393.9238280082745 398.11753195127613 1394.4876368225123 394.8420712209436L1394.4876368225123 394.8420712209436Q1391.024239820767 395.0300074923561 1387.6413869353414 395.21794376376863Q1384.2585340499163 395.43272807395437 1380.768289009398 395.6206643453669L1380.768289009398 395.6206643453669L1380.768289009398 387.485708597082Q1389.279117300508 387.485708597082 1393.6284995817691 386.7339635114319Q1397.9778818630302 385.9553703870086 1400.0988769261144 384.80090471976024Q1402.2198719891985 383.61959101373867 1403.5891219666328 382.27718907507784L1403.5891219666328 382.27718907507784L1409.2003620702353 382.27718907507784Q1409.5762346130605 384.21024786674946 1409.6836267681529 386.7339635114319Q1409.7641708844726 389.23083111734115 1409.9521071558852 392.53313988644686L1409.9521071558852 392.53313988644686Q1415.7512835309003 387.485708597082 1423.2955824261744 384.31764002184235Q1430.8398813214485 381.1227234078295 1438.3841802167226 381.1227234078295L1438.3841802167226 381.1227234078295Q1448.0494741750808 381.1227234078295 1454.6272436745194 384.5861204095745Q1461.1781651351844 388.0763654500928 1464.856346447115 394.06347809652027L1464.856346447115 394.06347809652027Q1471.4341159465534 388.6670223031036 1480.0254883539828 384.8814488360799Q1488.6437088001858 381.1227234078295 1496.9397527811097 381.1227234078295L1496.9397527811097 381.1227234078295Q1513.7734730919174 381.1227234078295 1521.6936445300166 391.27128206410566Q1529.6138159681154 401.4198407203819 1529.2379434252907 424.42860994902924L1529.2379434252907 424.42860994902924L1529.0500071538781 460.3781338663674Q1529.0500071538781 464.2442514497107 1528.9426149987853 467.22438375353784Q1528.835222843692 470.23136409613824 1528.2714140294547 473.50682482647073L1528.2714140294547 473.50682482647073Q1531.3589384883749 473.3188885550582 1534.3659188309748 473.2383444387385Q1537.346051134802 473.1309522836457 1540.4335755937223 472.94301601223316L1540.4335755937223 472.94301601223316L1540.4335755937223 480.8631874503323L1501.020654674639 480.8631874503323L1501.020654674639 475.06401107531735Q1507.0077673210662 475.06401107531735 1509.316698655563 472.05703073271695Q1511.6524780288332 469.0768984288899 1512.028350571658 463.76098675179276Q1512.404223114483 458.44507507469575 1512.404223114483 451.4914330324324L1512.404223114483 451.4914330324324L1512.404223114483 424.42860994902924Q1512.404223114483 407.7828259096344 1507.088311437386 399.48678192871023Q1501.7723997602889 391.1638899090128 1490.3888313204448 391.3518261804253L1490.3888313204448 391.3518261804253Q1484.374870635244 391.3518261804253 1478.3877579888167 394.06347809652027Q1472.400645342389 396.77513001261525 1467.943870906035 400.82918386737106L1467.943870906035 400.82918386737106Q1468.9104003018706 403.9167083262911 1469.3936649997886 407.5143455219022Q1469.8769296977066 411.08513467874013 1469.8769296977066 414.95125226208347L1469.8769296977066 414.95125226208347Q1469.688993426294 426.1468844305152 1469.688993426294 437.55730090913255Q1469.688993426294 448.96771738775 1469.5010571548814 460.3781338663674L1469.5010571548814 460.3781338663674Q1469.5010571548814 464.2442514497107 1469.3936649997886 467.22438375353784Q1469.3131208834693 470.23136409613824 1468.7224640304585 473.50682482647073L1468.7224640304585 473.50682482647073Q1471.8099884893786 473.3188885550582 1474.8169688319786 473.2383444387385Q1477.823949174579 473.1309522836457 1480.911473633499 472.94301601223316L1480.911473633499 472.94301601223316L1480.911473633499 480.8631874503323L1441.4717046756427 480.8631874503323L1441.4717046756427 475.06401107531735Q1447.45881732207 475.06401107531735 1449.687204540247 472.05703073271695Q1451.915591758424 469.0768984288899 1452.398856456342 463.76098675179276Q1452.88212115426 458.44507507469575 1452.88212115426 451.4914330324324L1452.88212115426 451.4914330324324L1453.0700574256725 424.42860994902924Q1453.257993697085 407.7828259096344 1448.2374104464934 399.2988456572977Q1443.2168271959017 390.7880173661878 1431.806410717284 390.9759536376003L1431.806410717284 390.9759536376003Q1425.8192980708568 390.9759536376003 1420.0201216958417 393.5802133986024Q1414.220945320827 396.18447315960447 1410.1668914660709 400.26537505313354L1410.1668914660709 400.26537505313354Q1410.1668914660709 402.5743063876302 1410.2474355823906 405.1785661486323Q1410.3548277374834 407.7828259096344 1410.3548277374834 410.6824140971419L1410.3548277374834 410.6824140971419L1410.3548277374834 460.3781338663674Q1410.3548277374834 464.2442514497107 1410.2474355823906 467.22438375353784Q1410.1668914660709 470.23136409613824 1409.5762346130605 473.50682482647073L1409.5762346130605 473.50682482647073Q1412.6637590719802 473.3188885550582 1415.6707394145806 473.2383444387385Q1418.6508717184079 473.1309522836457 1421.765244216101 472.94301601223316L1421.765244216101 472.94301601223316L1421.765244216101 480.8631874503323Z " fill="#c5fad5" transform="matrix(0.5680217972844313,0,0,0.5680217972844313,0,67.70700322029738)"/></g></svg>